<svg height="2222" width="720" xmlns="http://www.w3.org/2000/svg">
<rect height="2222" fill="#555" width="720"></rect>
<text fill="#7f7" font-family="Courier New" font-size="12" xml:space="preserve">
<tspan x="10" y="26"></tspan>
<tspan x="10" y="42">&gt; npmdoc-extract-text-webpack-plugin@0.0.1 test /home/travis/build/npmdoc/node-npmdoc-extract-te\</tspan>
<tspan x="10" y="58">xt-webpack-plugin</tspan>
<tspan x="10" y="74">&gt; (set -e; export PORT=$(utility2 shServerPortRandom); utility2 test test.js)</tspan>
<tspan x="10" y="90"></tspan>
<tspan x="10" y="106"></tspan>
<tspan x="10" y="122">[MODE_BUILD=npmTest] - 2017-04-02T19:07:25Z - npm-testing /home/travis/build/npmdoc/node-npmdoc-\</tspan>
<tspan x="10" y="138">extract-text-webpack-plugin</tspan>
<tspan x="10" y="154"></tspan>
<tspan x="10" y="170"></tspan>
<tspan x="10" y="186">covering $ /home/travis/.nvm/versions/node/v6.10.1/bin/node /home/travis/build/npmdoc/node-npmdo\</tspan>
<tspan x="10" y="202">c-extract-text-webpack-plugin/test.js</tspan>
<tspan x="10" y="218">merging file:///home/travis/build/npmdoc/node-npmdoc-extract-text-webpack-plugin/tmp/build/test-\</tspan>
<tspan x="10" y="234">report.json to test-report</tspan>
<tspan x="10" y="250">&gt; server listening on http-port 62095</tspan>
<tspan x="10" y="266">created apidoc file:///home/travis/build/npmdoc/node-npmdoc-extract-text-webpack-plugin/tmp/buil\</tspan>
<tspan x="10" y="282">d/apidoc.html</tspan>
<tspan x="10" y="298"></tspan>
<tspan x="10" y="314"></tspan>
<tspan x="10" y="330">browserTest - created electron entry-page /home/travis/build/npmdoc/node-npmdoc-extract-text-web\</tspan>
<tspan x="10" y="346">pack-plugin/tmp/electron.15b301098ca0.592aaf5a07623.html</tspan>
<tspan x="10" y="362"></tspan>
<tspan x="10" y="378">[node test-case 1 of 6 passed] - testCase_buildLib_default</tspan>
<tspan x="10" y="394">[node test-case 2 of 6 passed] - testCase_buildReadme_default</tspan>
<tspan x="10" y="410">[node test-case 3 of 6 passed] - testCase_buildTest_default</tspan>
<tspan x="10" y="426"></tspan>
<tspan x="10" y="442">browserTest - created electron entry-page /home/travis/build/npmdoc/node-npmdoc-extract-text-web\</tspan>
<tspan x="10" y="458">pack-plugin/tmp/electron.15b301099040.1df3214b5e73d.html</tspan>
<tspan x="10" y="474"></tspan>
<tspan x="10" y="490">Xlib:  extension "RANDR" missing on display ":99.0".</tspan>
<tspan x="10" y="506">Xlib:  extension "RANDR" missing on display ":99.0".</tspan>
<tspan x="10" y="522">&gt; server listening on http-port 45676</tspan>
<tspan x="10" y="538">merging file:///home/travis/build/npmdoc/node-npmdoc-extract-text-webpack-plugin/tmp/build/test-\</tspan>
<tspan x="10" y="554">report.json to test-report</tspan>
<tspan x="10" y="570">merging file:///home/travis/build/npmdoc/node-npmdoc-extract-text-webpack-plugin/tmp/build/test-\</tspan>
<tspan x="10" y="586">report.json to test-report</tspan>
<tspan x="10" y="602">Xlib:  extension "RANDR" missing on display ":99.0".</tspan>
<tspan x="10" y="618">Xlib:  extension "RANDR" missing on display ":99.0".</tspan>
<tspan x="10" y="634">[5890:0402/190726:WARNING:audio_manager.cc(314)] Multiple instances of AudioManager detected</tspan>
<tspan x="10" y="650">[5890:0402/190726:WARNING:audio_manager.cc(275)] Multiple instances of AudioManager detected</tspan>
<tspan x="10" y="666">[5873:0402/190726:WARNING:audio_manager.cc(314)] Multiple instances of AudioManager detected</tspan>
<tspan x="10" y="682">[5873:0402/190726:WARNING:audio_manager.cc(275)] Multiple instances of AudioManager detected</tspan>
<tspan x="10" y="698">[5916:0402/190726:ERROR:sandbox_linux.cc(343)] InitializeSandbox() called with multiple threads \</tspan>
<tspan x="10" y="714">in process gpu-process. </tspan>
<tspan x="10" y="730">[5927:0402/190726:ERROR:sandbox_linux.cc(343)] InitializeSandbox() called with multiple threads \</tspan>
<tspan x="10" y="746">in process gpu-process. </tspan>
<tspan x="10" y="762">[5873:0402/190726:ERROR:browser_gpu_channel_host_factory.cc(131)] Failed to create channel.</tspan>
<tspan x="10" y="778"></tspan>
<tspan x="10" y="794">browserTest - opened url /home/travis/build/npmdoc/node-npmdoc-extract-text-webpack-plugin/tmp/b\</tspan>
<tspan x="10" y="810">uild/apidoc.html</tspan>
<tspan x="10" y="826"></tspan>
<tspan x="10" y="842"></tspan>
<tspan x="10" y="858">browserTest - opened url http://127.0.0.1:62095?modeTest=1</tspan>
<tspan x="10" y="874"></tspan>
<tspan x="10" y="890">[5890:0402/190728:INFO:CONSOLE(245)] "----------|-----------|-----------|-----------|-----------\</tspan>
<tspan x="10" y="906">|</tspan>
<tspan x="10" y="922">File      |   % Stmts |% Branches |   % Funcs |   % Lines |</tspan>
<tspan x="10" y="938">----------|-----------|-----------|-----------|-----------|</tspan>
<tspan x="10" y="954">----------|-----------|-----------|-----------|-----------|</tspan>
<tspan x="10" y="970">All files |       100 |       100 |       100 |       100 |</tspan>
<tspan x="10" y="986">----------|-----------|-----------|-----------|-----------|</tspan>
<tspan x="10" y="1002">", source: file:///home/travis/build/npmdoc/node-npmdoc-extract-text-webpack-plugin/tmp/electron\</tspan>
<tspan x="10" y="1018">.15b301099040.1df3214b5e73d.html (245)</tspan>
<tspan x="10" y="1034">[5890:0402/190728:INFO:CONSOLE(245)] "created coverage file:///tmp/build/coverage.html/index.htm\</tspan>
<tspan x="10" y="1050">l", source: file:///home/travis/build/npmdoc/node-npmdoc-extract-text-webpack-plugin/tmp/electro\</tspan>
<tspan x="10" y="1066">n.15b301099040.1df3214b5e73d.html (245)</tspan>
<tspan x="10" y="1082">[node test-case 4 of 6 passed] - testCase_buildApp_default</tspan>
<tspan x="10" y="1098"></tspan>
<tspan x="10" y="1114">browserTest - created screen-capture file:///home/travis/build/npmdoc/node-npmdoc-extract-text-w\</tspan>
<tspan x="10" y="1130">ebpack-plugin/tmp/build/screen-capture.npmTest.browser._2Fhome_2Ftravis_2Fbuild_2Fnpmdoc_2Fnode-\</tspan>
<tspan x="10" y="1146">npmdoc-extract-text-webpack-plugin_2Ftmp_2Fbuild_2Fapidoc.html.png</tspan>
<tspan x="10" y="1162"></tspan>
<tspan x="10" y="1178">browserTest - created screen-capture file:///home/travis/build/npmdoc/node-npmdoc-extract-text-w\</tspan>
<tspan x="10" y="1194">ebpack-plugin/tmp/build/screen-capture.npmTest.browser._2Fhome_2Ftravis_2Fbuild_2Fnpmdoc_2Fnode-\</tspan>
<tspan x="10" y="1210">npmdoc-extract-text-webpack-plugin_2Ftmp_2Fbuild_2Fapidoc.html.html</tspan>
<tspan x="10" y="1226"></tspan>
<tspan x="10" y="1242">browserTest - exit-code 0 - /home/travis/build/npmdoc/node-npmdoc-extract-text-webpack-plugin/tm\</tspan>
<tspan x="10" y="1258">p/build/apidoc.html</tspan>
<tspan x="10" y="1274"></tspan>
<tspan x="10" y="1290">[node test-case 5 of 6 passed] - testCase_buildApidoc_default</tspan>
<tspan x="10" y="1306"></tspan>
<tspan x="10" y="1322">browserTest - created screen-capture file:///home/travis/build/npmdoc/node-npmdoc-extract-text-w\</tspan>
<tspan x="10" y="1338">ebpack-plugin/tmp/build/screen-capture.npmTest.browser..png</tspan>
<tspan x="10" y="1354"></tspan>
<tspan x="10" y="1370">browserTest - created screen-capture file:///home/travis/build/npmdoc/node-npmdoc-extract-text-w\</tspan>
<tspan x="10" y="1386">ebpack-plugin/tmp/build/screen-capture.npmTest.browser..html</tspan>
<tspan x="10" y="1402"></tspan>
<tspan x="10" y="1418">browserTest - exit-code 0 - http://127.0.0.1:62095?modeTest=1</tspan>
<tspan x="10" y="1434"></tspan>
<tspan x="10" y="1450"></tspan>
<tspan x="10" y="1466">browserTest - merged coverage from /home/travis/build/npmdoc/node-npmdoc-extract-text-webpack-pl\</tspan>
<tspan x="10" y="1482">ugin/tmp/coverage.npmTest.browser.%2F.json</tspan>
<tspan x="10" y="1498"></tspan>
<tspan x="10" y="1514"></tspan>
<tspan x="10" y="1530">browserTest - merging test-report from /home/travis/build/npmdoc/node-npmdoc-extract-text-webpac\</tspan>
<tspan x="10" y="1546">k-plugin/tmp/test-report.npmTest.browser.%2F.json</tspan>
<tspan x="10" y="1562"></tspan>
<tspan x="10" y="1578">[node test-case 6 of 6 passed] - testCase_webpage_default</tspan>
<tspan x="10" y="1594">------------------------------------------------|-----------|-----------|-----------|-----------\</tspan>
<tspan x="10" y="1610">|</tspan>
<tspan x="10" y="1626">File                                            |   % Stmts |% Branches |   % Funcs |   % Lines \</tspan>
<tspan x="10" y="1642">|</tspan>
<tspan x="10" y="1658">------------------------------------------------|-----------|-----------|-----------|-----------\</tspan>
<tspan x="10" y="1674">|</tspan>
<tspan x="10" y="1690">   node-npmdoc-extract-text-webpack-plugin/     |       100 |       100 |       100 |       100 \</tspan>
<tspan x="10" y="1706">|</tspan>
<tspan x="10" y="1722">      example.js                                |       100 |       100 |       100 |       100 \</tspan>
<tspan x="10" y="1738">|</tspan>
<tspan x="10" y="1754">      lib.npmdoc_extract_text_webpack_plugin.js |       100 |       100 |       100 |       100 \</tspan>
<tspan x="10" y="1770">|</tspan>
<tspan x="10" y="1786">      test.js                                   |       100 |       100 |       100 |       100 \</tspan>
<tspan x="10" y="1802">|</tspan>
<tspan x="10" y="1818">------------------------------------------------|-----------|-----------|-----------|-----------\</tspan>
<tspan x="10" y="1834">|</tspan>
<tspan x="10" y="1850">All files                                       |       100 |       100 |       100 |       100 \</tspan>
<tspan x="10" y="1866">|</tspan>
<tspan x="10" y="1882">------------------------------------------------|-----------|-----------|-----------|-----------\</tspan>
<tspan x="10" y="1898">|</tspan>
<tspan x="10" y="1914"></tspan>
<tspan x="10" y="1930">created coverage file:///home/travis/build/npmdoc/node-npmdoc-extract-text-webpack-plugin/tmp/bu\</tspan>
<tspan x="10" y="1946">ild/coverage.html/index.html</tspan>
<tspan x="10" y="1962">merging file:///home/travis/build/npmdoc/node-npmdoc-extract-text-webpack-plugin/tmp/build/test-\</tspan>
<tspan x="10" y="1978">report.json to test-report</tspan>
<tspan x="10" y="1994"></tspan>
<tspan x="10" y="2010">-------------------------------------------------------</tspan>
<tspan x="10" y="2026">| test-report - buildNpmdoc - node - linux v6.10.1 - 2017-04-02T19:06:50.315Z</tspan>
<tspan x="10" y="2042">|   45295 ms            0 failed        6 passed      |</tspan>
<tspan x="10" y="2058">-------------------------------------------------------</tspan>
<tspan x="10" y="2074"></tspan>
<tspan x="10" y="2090">created test-report file:///home/travis/build/npmdoc/node-npmdoc-extract-text-webpack-plugin/tmp\</tspan>
<tspan x="10" y="2106">/build/test-report.html</tspan>
<tspan x="10" y="2122"></tspan>
<tspan x="10" y="2138"></tspan>
<tspan x="10" y="2154">npmTest - 0 failed tests</tspan>
<tspan x="10" y="2170"></tspan>
<tspan x="10" y="2186"></tspan>
<tspan x="10" y="2202">[MODE_BUILD=npmTest] - 2017-04-02T19:07:39Z - EXIT_CODE - 0</tspan>
</text>
</svg>
